<?xml version="1.0" standalone="no"?>
<!DOCTYPE svg PUBLIC "-//W3C//DTD SVG 20010904//EN"
 "http://www.w3.org/TR/2001/REC-SVG-20010904/DTD/svg10.dtd">
<svg version="1.0" xmlns="http://www.w3.org/2000/svg"
 width="258.000000pt" height="59.000000pt" viewBox="0 0 258.000000 59.000000"
 preserveAspectRatio="xMidYMid meet">
<metadata>
Created by potrace 1.10, written by Peter Selinger 2001-2011
</metadata>
<g transform="translate(0.000000,59.000000) scale(0.100000,-0.100000)"
fill="#000000" stroke="none">
<path d="M642 573 c357 -2 939 -2 1295 0 357 1 65 2 -647 2 -712 0 -1004 -1
-648 -2z"/>
<path d="M2096 438 c-3 -7 -6 -22 -8 -33 -2 -13 -15 -22 -41 -28 -20 -5 -37
-14 -37 -20 0 -5 -8 -3 -19 7 -14 12 -35 16 -92 15 -41 -1 -84 -6 -96 -12 -15
-7 -31 -6 -51 2 -37 16 -112 -3 -113 -28 0 -11 -3 -9 -9 5 -11 27 -71 40 -111
24 -27 -12 -47 -43 -40 -65 2 -5 3 -29 2 -53 -1 -38 2 -44 26 -53 29 -11 90
-4 110 13 8 6 28 3 62 -8 38 -14 56 -16 78 -8 19 7 37 7 56 0 36 -14 61 2 65
40 4 28 17 44 37 44 6 0 18 -18 27 -39 10 -22 27 -42 38 -46 33 -10 67 2 75
27 7 22 7 22 12 3 6 -20 6 -20 14 0 7 19 8 19 8 -2 1 -27 39 -40 70 -24 15 8
32 8 65 0 33 -8 53 -8 79 0 24 8 42 9 61 1 75 -28 118 -4 124 68 4 61 -9 89
-51 107 -27 11 -37 11 -64 0 -25 -10 -40 -11 -68 -2 -27 8 -44 8 -69 -1 -56
-20 -65 -17 -68 31 -3 39 -5 42 -36 45 -20 2 -34 -2 -36 -10z m59 -28 c0 -18
-6 -26 -23 -28 -13 -2 -25 3 -28 12 -10 26 4 48 28 44 17 -2 23 -10 23 -28z
m-545 -70 c0 -16 -7 -20 -37 -21 -36 0 -37 -1 -13 -11 48 -19 55 -25 58 -45 5
-35 -25 -54 -77 -51 -38 3 -46 6 -46 23 0 17 6 20 40 17 45 -4 41 7 -8 23 -66
21 -36 85 40 85 36 0 43 -3 43 -20z m152 3 c10 -9 18 -29 18 -45 0 -27 -2 -28
-46 -28 -27 0 -43 -4 -39 -10 3 -5 21 -10 40 -10 30 0 52 -19 38 -34 -11 -10
-73 -7 -96 5 -30 16 -37 28 -37 66 0 61 77 97 122 56z m88 5 c0 -9 3 -9 12 0
7 7 36 12 65 12 l52 0 11 -42 c6 -24 12 -47 13 -52 2 -4 9 15 16 43 12 46 16
51 41 51 l28 0 -28 -72 c-25 -65 -32 -73 -57 -76 -27 -3 -30 1 -53 68 -21 59
-26 68 -34 51 -5 -11 -18 -21 -30 -23 -17 -2 -22 -11 -24 -50 -3 -43 -5 -48
-28 -48 -23 0 -24 2 -24 75 0 68 2 75 20 75 11 0 20 -5 20 -12z m310 -63 l0
-75 -30 0 -30 0 0 75 0 75 30 0 30 0 0 -75z m150 49 c0 -18 -5 -25 -17 -23
-42 4 -53 -1 -53 -25 0 -25 23 -40 51 -34 8 2 14 -5 14 -17 0 -15 -8 -21 -33
-23 -83 -8 -119 84 -53 135 9 7 33 13 54 13 33 0 37 -3 37 -26z m142 9 c10 -9
18 -29 18 -45 0 -27 -2 -28 -47 -28 -54 0 -48 -17 7 -22 51 -5 47 -32 -6 -36
-80 -6 -124 70 -72 125 26 27 73 30 100 6z"/>
<path d="M546 431 c-3 -4 -6 -32 -7 -61 -2 -51 -3 -52 -19 -30 -19 26 -95 39
-127 22 -16 -9 -24 -7 -41 8 -17 16 -21 17 -26 5 -4 -10 1 -15 14 -15 13 0 20
-7 20 -20 0 -13 -7 -20 -18 -20 -15 0 -17 -6 -14 -35 2 -20 10 -35 17 -35 11
0 25 -20 25 -36 0 -2 -15 -4 -34 -4 -45 0 -66 22 -66 71 0 21 -4 39 -10 39 -5
0 -10 9 -10 20 0 11 5 20 10 20 6 0 10 10 10 23 0 18 -3 16 -17 -13 -9 -19
-18 -36 -19 -38 -1 -2 -15 4 -31 13 -15 9 -20 14 -10 11 9 -3 17 -1 17 4 0 6
-16 10 -36 10 -46 0 -41 -18 10 -35 22 -8 43 -20 47 -27 15 -23 10 -57 -11
-78 -11 -11 -15 -20 -10 -20 6 0 19 15 30 33 13 21 20 26 20 15 0 -10 9 -27
19 -37 16 -16 34 -19 131 -19 103 0 113 2 118 20 5 19 5 19 23 0 15 -17 32
-20 111 -20 66 0 100 4 116 15 21 13 26 13 41 -1 23 -21 67 -20 79 0 8 15 10
15 15 0 8 -21 65 -22 73 -1 5 12 11 12 42 -4 24 -12 50 -17 75 -13 55 6 53 18
-3 14 -42 -3 -53 0 -75 22 -32 32 -32 70 0 101 24 25 68 33 91 17 15 -10 34
-47 34 -66 0 -12 -11 -16 -46 -16 -27 0 -43 -4 -39 -10 3 -6 21 -10 40 -10 18
0 35 -6 38 -12 2 -7 8 8 12 33 6 41 10 46 33 46 15 0 33 2 40 4 25 7 38 -27
22 -56 -37 -70 93 -103 156 -40 29 30 31 64 3 99 -11 14 -16 26 -11 26 20 0
21 54 2 73 -25 23 -88 22 -119 -2 -24 -18 -25 -18 -45 0 -21 21 -43 24 -65 10
-12 -8 -15 -18 -20 -71 -1 -11 -4 -11 -13 -2 -19 19 -92 15 -120 -8 -25 -19
-26 -19 -43 0 -23 26 -142 29 -151 5 -7 -18 -31 -20 -36 -4 -2 6 -26 14 -54
16 -43 4 -54 2 -80 -20 l-30 -26 -3 51 c-1 29 -4 55 -7 60 -7 11 -61 10 -68
-1z m64 -91 c0 -49 4 -90 9 -90 5 0 11 -9 14 -20 4 -17 0 -20 -29 -20 -46 0
-54 20 -54 129 l0 91 30 0 30 0 0 -90z m616 64 c-3 -9 -6 -29 -6 -45 0 -24 -4
-29 -25 -29 -23 0 -25 4 -25 45 0 44 1 45 31 45 24 0 30 -3 25 -16z m170 8 c6
-4 8 -16 4 -27 -6 -16 -14 -19 -50 -16 -52 3 -52 -18 1 -32 48 -12 59 -24 59
-63 0 -47 -34 -68 -100 -62 -59 6 -61 7 -54 34 5 19 11 20 56 16 39 -4 50 -2
46 9 -2 7 -20 17 -39 22 -36 8 -69 39 -69 64 0 29 51 63 94 63 23 0 46 -4 52
-8z m-896 -72 c15 -15 20 -33 20 -74 l0 -53 -59 -1 c-65 -1 -85 11 -79 50 2
18 13 25 47 34 49 11 41 30 -8 19 -22 -5 -30 -2 -35 11 -9 23 10 34 57 34 24
0 44 -7 57 -20z m280 0 c48 -48 9 -130 -61 -130 -70 0 -103 77 -54 125 31 32
86 34 115 5z m90 10 c0 -7 6 -7 19 0 55 29 91 -5 91 -87 0 -52 0 -53 -30 -53
-29 0 -30 1 -30 50 0 44 -2 50 -21 50 -19 0 -21 -5 -17 -50 3 -49 2 -50 -24
-50 l-28 0 0 75 c0 68 2 75 20 75 11 0 20 -5 20 -10z m-485 -40 c6 -10 -15
-50 -27 -50 -4 0 -10 10 -13 21 -9 28 25 53 40 29z"/>
<path d="M707 314 c-12 -13 -7 -52 7 -57 21 -8 42 21 30 41 -12 19 -27 25 -37
16z"/>
<path d="M80 324 c0 -7 12 -19 26 -29 21 -13 24 -19 13 -26 -9 -6 -1 -9 24 -9
49 0 45 17 -7 35 -22 8 -43 20 -47 27 -6 8 -9 9 -9 2z"/>
</g>
</svg>
