<svg id="Layer_1" data-name="Layer 1" xmlns="http://www.w3.org/2000/svg" viewBox="0 0 512 512"><title>reddit-flat</title><g id="Reddit"><circle id="back" cx="256" cy="256" r="256" fill="#ff4500"/><g id="reddit-2" data-name="reddit"><path d="M235,202.06a17.86,17.86,0,1,0-17.87,17.86A17.89,17.89,0,0,0,235,202.06Z" fill="#fff"/><path d="M294.89,184.19a17.87,17.87,0,1,0,17.88,17.87A17.89,17.89,0,0,0,294.89,184.19Z" fill="#fff"/><path d="M290.64,245.78c-6.75,6.74-18.18,10-34.64,10s-27.89-3.27-34.63-10a5,5,0,1,0-7,7c8.69,8.69,22.41,12.92,41.65,12.92s33-4.23,41.66-12.92a5,5,0,0,0-7-7Z" fill="#fff"/><path d="M385,182.59a29.31,29.31,0,0,0-48.8-21.91c-19.9-12.82-45.64-20.32-73.19-21.42l15.12-47.81,41.14,9.68a24.17,24.17,0,1,0,2-9.73L276,80.73a5,5,0,0,0-5.87,3.33l-17.43,55.09c-28.95.54-56.12,8.12-76.91,21.52a29.32,29.32,0,1,0-34.47,47.11,52.92,52.92,0,0,0-.66,8.34c0,21,12.29,40.55,34.59,55.11A123.19,123.19,0,0,0,198.6,283c-16.45,7.84-28.09,26.93-28.09,49.18,0,25.14,14.86,46.23,34.72,51.64q2.33,7.26,5.15,13.79c-.91-.07-1.84-.11-2.77-.11-17.86,0-32.38,12.2-32.38,27.18a22.67,22.67,0,0,0,1.21,7.08,5,5,0,0,0,4.72,3.43H330.1a5,5,0,0,0,4.74-3.48,23.22,23.22,0,0,0,1.18-7c0-15-14.53-27.18-32.39-27.18-.67,0-1.33,0-2,.05,1.87-4.32,3.59-8.91,5.13-13.72,19.86-5.41,34.72-26.5,34.72-51.64,0-22.25-11.64-41.34-28.09-49.18a123.14,123.14,0,0,0,23.38-11.78c22.31-14.56,34.59-34.13,34.59-55.11a53.39,53.39,0,0,0-.66-8.34A29.35,29.35,0,0,0,385,182.59ZM357.73,101a14.25,14.25,0,1,1-14.26-14.25A14.27,14.27,0,0,1,357.73,101ZM326.1,424.69c0,.19,0,.39,0,.59H284a81.42,81.42,0,0,0,12.26-16.88,28.37,28.37,0,0,1,7.32-1C316,407.43,326.1,415.17,326.1,424.69ZM207.61,407.43a28.26,28.26,0,0,1,8.21,1.2,81.14,81.14,0,0,0,12.13,16.65H185.17c0-.2,0-.39,0-.59C185.15,415.17,195.23,407.43,207.61,407.43Zm60.67,17.85H243.71c-22.06-12.63-38-56.66-38-105.63a221,221,0,0,1,2.5-33.34,170.18,170.18,0,0,0,95.48,0,221,221,0,0,1,2.5,33.34C306.25,368.61,290.34,412.64,268.28,425.28ZM197,295.53c-.78,7.77-1.2,15.83-1.2,24.12a221.83,221.83,0,0,0,6.05,52.3c-12.58-6.5-21.45-21.86-21.45-39.75C180.43,316.71,187.08,303.13,197,295.53Zm113.09,76.42a221.68,221.68,0,0,0,6.05-52.3c0-8.29-.42-16.34-1.2-24.12,9.95,7.59,16.6,21.18,16.6,36.66C331.57,350.08,322.7,365.45,310.12,371.95ZM256,283.22c-58.14,0-105.45-30.1-105.45-67.1S197.85,149,256,149s105.45,30.1,105.45,67.09S314.14,283.22,256,283.22Zm-99.7-120a19.26,19.26,0,0,1,11.07,3.48c-11.33,9-19.28,19.54-23.42,30.88a19.4,19.4,0,0,1,12.35-34.37Zm188.32,3.48A19.4,19.4,0,0,1,368,197.55C363.9,186.21,356,175.69,344.62,166.66Z" fill="#fff"/></g></g></svg>